<?xml version="1.0" encoding="utf-8"?>
<!-- Generator: Adobe Illustrator 16.0.4, SVG Export Plug-In . SVG Version: 6.00 Build 0)  -->
<!DOCTYPE svg PUBLIC "-//W3C//DTD SVG 1.1//EN" "http://www.w3.org/Graphics/SVG/1.1/DTD/svg11.dtd">
<svg version="1.1" id="Layer_1" xmlns="http://www.w3.org/2000/svg" xmlns:xlink="http://www.w3.org/1999/xlink" x="0px" y="0px"
	 width="256px" height="64px" viewBox="0 0 256 64" enable-background="new 0 0 256 64" xml:space="preserve">
<g>
	<g>
		<g>
			<path fill="#FFFFFF" d="M46.883,32.935c-1.78,1.063-6.195,3.225-9.195,5.342c0.02,0.129,0.031,0.26,0.028,0.395
				c-0.023,1.09-0.848,1.977-1.898,2.109c-0.102,0.012-0.209,0.018-0.317,0.016c-1.084-0.021-1.969-0.841-2.108-1.885
				c-0.018-0.594,0.011-0.75,0.268-1.271c-0.006-0.016-0.604-0.536-0.386-1.681c-0.501-1.012-1.277-2.246-1.277-2.246
				c-1.647-0.159-1.647-0.159-4.168-4.953l0.687-0.485l2.335,4.241l0.398-0.301c-0.404-0.761-1.908-3.448-2.336-4.239l0.854-0.621
				l2.349,4.201l0.354-0.267c-0.354-0.772-2.355-4.212-2.355-4.212l0.663-0.445c3.341,4.884,2.957,5.549,2.384,6.501
				c0.506,1.023,1.211,2.214,1.211,2.214c1.266,0.49,1.338,1.231,1.378,1.233c0.277,0.006,0.61-0.006,1.063,0.318
				c0.347-0.199,1.517-0.714,1.517-0.714c0.213-0.039-0.665-1.937,2.169-2.776C44.293,32.283,46.883,32.935,46.883,32.935z"/>
		</g>
		<g>
			<path fill="#FFFFFF" d="M38.946,21.499c-0.045-0.208-0.131-0.454-0.25-0.758c-1.022-2.594-2.115-5.163-3.177-7.741
				c-0.039-0.096-0.066-0.198-0.095-0.28c1.723-1.62,2.126-3.056,1.315-4.619c-0.667-1.288-2.253-2.034-3.676-1.729
				c-1.508,0.326-2.617,1.6-2.708,3.112c-0.1,1.691,0.881,2.91,2.998,3.646c-0.553,2.168-0.988,3.49-3.507,4.299
				c-2.333,0.748-3.89,0.193-5.479-1.124c1.104-2.021,1.024-3.558-0.214-4.767c-1.085-1.062-2.797-1.261-4.098-0.479
				c-1.271,0.766-1.916,2.353-1.53,3.767c0.464,1.692,1.79,2.543,4.007,2.508c0.372,1.975,0.854,4.021-0.78,5.665
				c-1.928,1.938-4.206,1.203-6.423,0.572c0.319-2.476-0.241-3.806-1.867-4.505c-1.403-0.603-3.028-0.187-3.991,1.021
				c-0.899,1.132-0.965,2.864-0.149,3.996c1.034,1.438,2.523,1.789,4.554,1.055c0.799,1.123,1.568,2.282,2.42,3.376
				c0.985,1.27,2.028,2.499,3.075,3.72c0.263,0.309,0.473,0.506,0.684,0.605c-0.458,1.506-0.703,3.105-0.703,4.759
				c0,9.064,7.348,16.412,16.411,16.412c9.064,0,16.412-7.348,16.412-16.412C52.175,29.628,46.486,22.982,38.946,21.499z
				 M36.467,50.56v0.019h-0.704C35.999,50.578,36.232,50.571,36.467,50.56v-2.71h-1.968v2.666
				c-6.271-0.604-11.235-5.676-11.68-11.992h2.549v-1.965h-2.538c0.169-2.124,0.85-4.106,1.918-5.819
				c2.081-3.333,5.635-5.654,9.75-6.052v2.559h1.968v-2.599c6.492,0.346,11.719,5.467,12.232,11.912h-2.665v1.965h2.674
				C48.25,45.027,43,50.211,36.467,50.56z"/>
		</g>
	</g>
	<g enable-background="new    ">
		<path fill="#FFFFFF" d="M75.36,46.156c-2.07,2.021-4.618,3.031-7.644,3.031c-3.026,0-5.574-1.011-7.644-3.031
			c-2.069-2.021-3.104-4.535-3.104-7.541s1.035-5.521,3.104-7.541s4.617-3.031,7.644-3.031c3.026,0,5.574,1.011,7.644,3.031
			c2.069,2.021,3.104,4.535,3.104,7.541S77.429,44.135,75.36,46.156z M73.808,38.63c0-1.825-0.586-3.383-1.757-4.671
			c-1.171-1.289-2.611-1.933-4.319-1.933c-1.708,0-3.148,0.645-4.319,1.933c-1.171,1.288-1.757,2.846-1.757,4.671
			s0.586,3.378,1.757,4.656s2.611,1.918,4.319,1.918c1.708,0,3.148-0.64,4.319-1.918S73.808,40.455,73.808,38.63z"/>
		<path fill="#FFFFFF" d="M98.934,35.306c0,3.28-1.298,5.398-3.895,6.354l5.184,7.322H94.6l-4.539-6.531h-3.163v6.531h-4.568V28.512
			h7.76c3.182,0,5.452,0.537,6.809,1.611C98.255,31.196,98.934,32.924,98.934,35.306z M93.428,37.736
			c0.566-0.508,0.849-1.312,0.849-2.416c0-1.103-0.293-1.859-0.878-2.27c-0.586-0.41-1.611-0.615-3.075-0.615h-3.426v6.062h3.338
			C91.798,38.498,92.862,38.244,93.428,37.736z"/>
		<path fill="#FFFFFF" d="M119.257,31.191c1.952,1.786,2.929,4.271,2.929,7.453s-0.952,5.701-2.855,7.555
			c-1.904,1.855-4.808,2.783-8.712,2.783h-6.999V28.512h7.233C114.503,28.512,117.305,29.405,119.257,31.191z M115.904,43.359
			c1.122-1.055,1.684-2.587,1.684-4.598s-0.562-3.559-1.684-4.643c-1.123-1.083-2.846-1.625-5.169-1.625h-2.548V44.94h2.899
			C113.176,44.94,114.781,44.414,115.904,43.359z"/>
		<path fill="#FFFFFF" d="M140.898,28.512v4.071h-10.191v4.216h9.167v3.896h-9.167v4.246h10.514v4.042h-15.082V28.512H140.898z"/>
		<path fill="#FFFFFF" d="M161.896,35.306c0,3.28-1.299,5.398-3.896,6.354l5.184,7.322h-5.622l-4.539-6.531h-3.164v6.531h-4.568
			V28.512h7.761c3.183,0,5.452,0.537,6.81,1.611C161.217,31.196,161.896,32.924,161.896,35.306z M156.391,37.736
			c0.566-0.508,0.85-1.312,0.85-2.416c0-1.103-0.293-1.859-0.879-2.27c-0.586-0.41-1.611-0.615-3.075-0.615h-3.427v6.062h3.339
			C154.76,38.498,155.824,38.244,156.391,37.736z"/>
	</g>
	<g enable-background="new    ">
		<path fill="#FFFFFF" d="M166.848,48.982V28.903h3.391v16.861h9.162v3.218H166.848z"/>
		<path fill="#FFFFFF" d="M199.336,46.21c-2.03,1.981-4.539,2.974-7.525,2.974c-2.988,0-5.497-0.992-7.526-2.974
			c-2.03-1.981-3.045-4.452-3.045-7.411s1.015-5.429,3.045-7.411c2.029-1.982,4.538-2.973,7.526-2.973
			c2.986,0,5.495,0.991,7.525,2.973c2.029,1.982,3.045,4.452,3.045,7.411S201.365,44.229,199.336,46.21z M196.852,33.643
			c-1.369-1.417-3.051-2.125-5.041-2.125c-1.992,0-3.673,0.708-5.042,2.125c-1.369,1.418-2.054,3.137-2.054,5.156
			c0,2.021,0.685,3.739,2.054,5.156c1.369,1.418,3.05,2.125,5.042,2.125c1.99,0,3.672-0.707,5.041-2.125
			c1.369-1.417,2.053-3.135,2.053-5.156C198.904,36.779,198.221,35.061,196.852,33.643z"/>
		<path fill="#FFFFFF" d="M222.689,35.424c0,3.313-1.446,5.4-4.338,6.262l5.257,7.297H219.3l-4.798-6.751h-4.451v6.751h-3.391
			V28.903h7.469c3.064,0,5.257,0.517,6.578,1.551S222.689,33.145,222.689,35.424z M218.18,38.268
			c0.689-0.594,1.033-1.546,1.033-2.857c0-1.312-0.354-2.213-1.062-2.701c-0.709-0.488-1.973-0.732-3.791-0.732h-4.309v7.181h4.223
			C216.188,39.158,217.49,38.861,218.18,38.268z"/>
		<path fill="#FFFFFF" d="M242.768,31.532c1.934,1.751,2.9,4.189,2.9,7.31c0,3.122-0.938,5.592-2.814,7.411s-4.75,2.729-8.617,2.729
			h-6.664V28.903h6.894C238.066,28.903,240.833,29.779,242.768,31.532z M242.25,38.928c0-4.596-2.633-6.894-7.898-6.894h-3.391
			v13.759h3.764c2.432,0,4.294-0.578,5.587-1.737C241.604,42.897,242.25,41.188,242.25,38.928z"/>
	</g>
</g>
</svg>
