<?xml version="1.0" encoding="utf-8"?>
<!-- Generator: Adobe Illustrator 19.1.0, SVG Export Plug-In . SVG Version: 6.00 Build 0)  -->
<svg version="1.1" id="Layer_1" xmlns="http://www.w3.org/2000/svg" xmlns:xlink="http://www.w3.org/1999/xlink" x="0px" y="0px"
	 viewBox="-169 388.9 256 64" style="enable-background:new -169 388.9 256 64;" xml:space="preserve">
<style type="text/css">
	.st0{fill:#E82532;}
	.st1{enable-background:new    ;}
</style>
<g>
	<g>
		<g>
			<path class="st0" d="M-122.6,422.5c-1.8,1.1-6.2,3.2-9.2,5.3c0,0.1,0,0.3,0,0.4c0,1.1-0.8,2-1.9,2.1c-0.1,0-0.2,0-0.3,0
				c-1.1,0-2-0.8-2.1-1.9c0-0.6,0-0.8,0.3-1.3c0,0-0.6-0.5-0.4-1.7c-0.5-1-1.3-2.2-1.3-2.2c-1.6-0.2-1.6-0.2-4.2-5l0.7-0.5l2.3,4.2
				l0.4-0.3c-0.4-0.8-1.9-3.4-2.3-4.2l0.9-0.6l2.3,4.2l0.4-0.3c-0.4-0.8-2.4-4.2-2.4-4.2l0.7-0.4c3.3,4.9,3,5.5,2.4,6.5
				c0.5,1,1.2,2.2,1.2,2.2c1.3,0.5,1.3,1.2,1.4,1.2c0.3,0,0.6,0,1.1,0.3c0.3-0.2,1.5-0.7,1.5-0.7c0.2,0-0.7-1.9,2.2-2.8
				C-125.2,421.9-122.6,422.5-122.6,422.5z"/>
		</g>
		<g>
			<path class="st0" d="M-130.5,411.1c0-0.2-0.1-0.5-0.3-0.8c-1-2.6-2.1-5.2-3.2-7.7c0-0.1-0.1-0.2-0.1-0.3c1.7-1.6,2.1-3.1,1.3-4.6
				c-0.7-1.3-2.3-2-3.7-1.7c-1.5,0.3-2.6,1.6-2.7,3.1c-0.1,1.7,0.9,2.9,3,3.6c-0.6,2.2-1,3.5-3.5,4.3c-2.3,0.7-3.9,0.2-5.5-1.1
				c1.1-2,1-3.6-0.2-4.8c-1.1-1.1-2.8-1.3-4.1-0.5c-1.3,0.8-1.9,2.4-1.5,3.8c0.5,1.7,1.8,2.5,4,2.5c0.4,2,0.9,4-0.8,5.7
				c-1.9,1.9-4.2,1.2-6.4,0.6c0.3-2.5-0.2-3.8-1.9-4.5c-1.4-0.6-3-0.2-4,1c-0.9,1.1-1,2.9-0.1,4c1,1.4,2.5,1.8,4.6,1.1
				c0.8,1.1,1.6,2.3,2.4,3.4c1,1.3,2,2.5,3.1,3.7c0.3,0.3,0.5,0.5,0.7,0.6c-0.5,1.5-0.7,3.1-0.7,4.8c0,9.1,7.3,16.4,16.4,16.4
				c9.1,0,16.4-7.3,16.4-16.4C-117.3,419.2-123,412.6-130.5,411.1z M-133,440.1L-133,440.1l-0.7,0
				C-133.4,440.2-133.2,440.2-133,440.1v-2.7h-2v2.7c-6.3-0.6-11.2-5.7-11.7-12h2.5v-2h-2.5c0.2-2.1,0.9-4.1,1.9-5.8
				c2.1-3.3,5.6-5.7,9.8-6.1v2.6h2v-2.6c6.5,0.3,11.7,5.5,12.2,11.9h-2.7v2h2.7C-121.2,434.6-126.4,439.8-133,440.1z"/>
		</g>
	</g>
	<g class="st1">
		<path class="st0" d="M-94.1,435.7c-2.1,2-4.6,3-7.6,3c-3,0-5.6-1-7.6-3c-2.1-2-3.1-4.5-3.1-7.5c0-3,1-5.5,3.1-7.5
			c2.1-2,4.6-3,7.6-3c3,0,5.6,1,7.6,3c2.1,2,3.1,4.5,3.1,7.5C-91,431.2-92,433.7-94.1,435.7z M-95.6,428.2c0-1.8-0.6-3.4-1.8-4.7
			c-1.2-1.3-2.6-1.9-4.3-1.9c-1.7,0-3.1,0.6-4.3,1.9c-1.2,1.3-1.8,2.8-1.8,4.7c0,1.8,0.6,3.4,1.8,4.7c1.2,1.3,2.6,1.9,4.3,1.9
			c1.7,0,3.1-0.6,4.3-1.9C-96.2,431.6-95.6,430-95.6,428.2z"/>
		<path class="st0" d="M-70.5,424.9c0,3.3-1.3,5.4-3.9,6.4l5.2,7.3h-5.6l-4.5-6.5h-3.2v6.5h-4.6v-20.5h7.8c3.2,0,5.5,0.5,6.8,1.6
			C-71.2,420.8-70.5,422.5-70.5,424.9z M-76,427.3c0.6-0.5,0.8-1.3,0.8-2.4c0-1.1-0.3-1.9-0.9-2.3c-0.6-0.4-1.6-0.6-3.1-0.6h-3.4
			v6.1h3.3C-77.6,428.1-76.6,427.8-76,427.3z"/>
		<path class="st0" d="M-50.2,420.8c2,1.8,2.9,4.3,2.9,7.5c0,3.2-1,5.7-2.9,7.6c-1.9,1.9-4.8,2.8-8.7,2.8h-7v-20.5h7.2
			C-54.9,418.1-52.1,419-50.2,420.8z M-53.5,432.9c1.1-1.1,1.7-2.6,1.7-4.6c0-2-0.6-3.6-1.7-4.6c-1.1-1.1-2.8-1.6-5.2-1.6h-2.5v12.4
			h2.9C-56.3,434.5-54.7,434-53.5,432.9z"/>
		<path class="st0" d="M-28.5,418.1v4.1h-10.2v4.2h9.2v3.9h-9.2v4.2h10.5v4h-15.1v-20.5H-28.5z"/>
		<path class="st0" d="M-7.5,424.9c0,3.3-1.3,5.4-3.9,6.4l5.2,7.3h-5.6l-4.5-6.5h-3.2v6.5h-4.6v-20.5h7.8c3.2,0,5.5,0.5,6.8,1.6
			C-8.2,420.8-7.5,422.5-7.5,424.9z M-13.1,427.3c0.6-0.5,0.8-1.3,0.8-2.4c0-1.1-0.3-1.9-0.9-2.3s-1.6-0.6-3.1-0.6h-3.4v6.1h3.3
			C-14.7,428.1-13.6,427.8-13.1,427.3z"/>
		<path class="st0" d="M-2.9,438.6v-20.5h4.6v16.4h8.7v4.1H-2.9z"/>
		<path class="st0" d="M30.4,435.7c-2.1,2-4.6,3-7.6,3c-3,0-5.6-1-7.6-3c-2.1-2-3.1-4.5-3.1-7.5c0-3,1-5.5,3.1-7.5
			c2.1-2,4.6-3,7.6-3c3,0,5.6,1,7.6,3c2.1,2,3.1,4.5,3.1,7.5C33.5,431.2,32.5,433.7,30.4,435.7z M28.9,428.2c0-1.8-0.6-3.4-1.8-4.7
			c-1.2-1.3-2.6-1.9-4.3-1.9c-1.7,0-3.1,0.6-4.3,1.9c-1.2,1.3-1.8,2.8-1.8,4.7c0,1.8,0.6,3.4,1.8,4.7c1.2,1.3,2.6,1.9,4.3,1.9
			c1.7,0,3.1-0.6,4.3-1.9C28.3,431.6,28.9,430,28.9,428.2z"/>
		<path class="st0" d="M54,424.9c0,3.3-1.3,5.4-3.9,6.4l5.2,7.3h-5.6l-4.5-6.5H42v6.5h-4.6v-20.5h7.8c3.2,0,5.5,0.5,6.8,1.6
			C53.3,420.8,54,422.5,54,424.9z M48.5,427.3c0.6-0.5,0.8-1.3,0.8-2.4c0-1.1-0.3-1.9-0.9-2.3c-0.6-0.4-1.6-0.6-3.1-0.6H42v6.1h3.3
			C46.9,428.1,47.9,427.8,48.5,427.3z"/>
		<path class="st0" d="M74.3,420.8c2,1.8,2.9,4.3,2.9,7.5c0,3.2-1,5.7-2.9,7.6c-1.9,1.9-4.8,2.8-8.7,2.8h-7v-20.5h7.2
			C69.6,418.1,72.4,419,74.3,420.8z M71,432.9c1.1-1.1,1.7-2.6,1.7-4.6c0-2-0.6-3.6-1.7-4.6c-1.1-1.1-2.8-1.6-5.2-1.6h-2.5v12.4h2.9
			C68.2,434.5,69.9,434,71,432.9z"/>
	</g>
</g>
</svg>
